<svg width="17" height="12" viewBox="0 0 17 12" fill="none" xmlns="http://www.w3.org/2000/svg">
<path d="M10.8962 11.2077C10.7295 11.041 10.6462 10.8396 10.6462 10.6035C10.6462 10.3674 10.7295 10.166 10.8962 9.99935L14.0003 6.87435H1.54199C1.30588 6.87435 1.10102 6.78754 0.927409 6.61393C0.753798 6.44032 0.666992 6.23546 0.666992 5.99935C0.666992 5.76324 0.753798 5.55838 0.927409 5.38477C1.10102 5.21115 1.30588 5.12435 1.54199 5.12435H14.0003L10.8962 1.99935C10.7295 1.83268 10.6462 1.63129 10.6462 1.39518C10.6462 1.15907 10.7295 0.957682 10.8962 0.791016C11.0628 0.624349 11.2642 0.541016 11.5003 0.541016C11.7364 0.541016 11.9378 0.624349 12.1045 0.791016L16.7087 5.37435C16.792 5.45768 16.858 5.5549 16.9066 5.66602C16.9552 5.77713 16.9795 5.88824 16.9795 5.99935C16.9795 6.11046 16.9552 6.22157 16.9066 6.33268C16.858 6.44379 16.792 6.54102 16.7087 6.62435L12.1045 11.2285C11.9378 11.3952 11.7364 11.475 11.5003 11.4681C11.2642 11.4612 11.0628 11.3743 10.8962 11.2077Z" fill="#52A9F6"/>
</svg>
