<svg width="1040" height="40" viewBox="0 0 1040 40" fill="none" xmlns="http://www.w3.org/2000/svg">
<path d="M517.801 17.3636C517.741 16.8598 517.5 16.4688 517.075 16.1903C516.651 15.9119 516.131 15.7727 515.514 15.7727C515.063 15.7727 514.669 15.8456 514.331 15.9915C513.996 16.1373 513.734 16.3378 513.545 16.593C513.36 16.8482 513.267 17.1383 513.267 17.4631C513.267 17.7348 513.332 17.9685 513.461 18.1641C513.594 18.3563 513.763 18.517 513.968 18.6463C514.174 18.7723 514.389 18.8767 514.614 18.9595C514.84 19.0391 515.047 19.1037 515.236 19.1534L516.27 19.4318C516.535 19.5014 516.83 19.5975 517.155 19.7202C517.483 19.8428 517.796 20.0102 518.094 20.2223C518.396 20.4311 518.645 20.6996 518.84 21.0277C519.036 21.3558 519.134 21.7585 519.134 22.2358C519.134 22.786 518.989 23.2831 518.701 23.7273C518.416 24.1714 517.998 24.5244 517.448 24.7862C516.901 25.0481 516.237 25.179 515.455 25.179C514.725 25.179 514.094 25.0613 513.56 24.826C513.03 24.5907 512.612 24.2625 512.308 23.8416C512.006 23.4207 511.835 22.9318 511.795 22.375H513.068C513.101 22.7595 513.231 23.0777 513.456 23.3295C513.685 23.5781 513.973 23.7637 514.321 23.8864C514.672 24.0057 515.05 24.0653 515.455 24.0653C515.925 24.0653 516.348 23.9891 516.722 23.8366C517.097 23.6809 517.393 23.4654 517.612 23.1903C517.831 22.9119 517.94 22.5871 517.94 22.2159C517.94 21.8778 517.846 21.6027 517.657 21.3906C517.468 21.1785 517.219 21.0062 516.911 20.8736C516.603 20.741 516.27 20.625 515.912 20.5256L514.659 20.1676C513.864 19.9389 513.234 19.6125 512.77 19.1882C512.306 18.764 512.074 18.2088 512.074 17.5227C512.074 16.9527 512.228 16.4555 512.536 16.0312C512.848 15.6037 513.265 15.2723 513.789 15.0369C514.316 14.7983 514.904 14.679 515.554 14.679C516.21 14.679 516.794 14.7966 517.304 15.032C517.814 15.264 518.219 15.5821 518.517 15.9865C518.819 16.3909 518.978 16.8499 518.994 17.3636H517.801ZM524.104 25.1591C523.414 25.1591 522.81 24.995 522.289 24.6669C521.772 24.3388 521.368 23.8797 521.076 23.2898C520.788 22.6998 520.644 22.0104 520.644 21.2216C520.644 20.4261 520.788 19.7318 521.076 19.1385C521.368 18.5452 521.772 18.0845 522.289 17.7564C522.81 17.4283 523.414 17.2642 524.104 17.2642C524.793 17.2642 525.396 17.4283 525.914 17.7564C526.434 18.0845 526.838 18.5452 527.127 19.1385C527.418 19.7318 527.564 20.4261 527.564 21.2216C527.564 22.0104 527.418 22.6998 527.127 23.2898C526.838 23.8797 526.434 24.3388 525.914 24.6669C525.396 24.995 524.793 25.1591 524.104 25.1591ZM524.104 24.1051C524.628 24.1051 525.058 23.9709 525.396 23.7024C525.735 23.4339 525.985 23.081 526.147 22.6435C526.31 22.206 526.391 21.732 526.391 21.2216C526.391 20.7112 526.31 20.2356 526.147 19.7947C525.985 19.3539 525.735 18.9976 525.396 18.7259C525.058 18.4541 524.628 18.3182 524.104 18.3182C523.58 18.3182 523.149 18.4541 522.811 18.7259C522.473 18.9976 522.223 19.3539 522.061 19.7947C521.898 20.2356 521.817 20.7112 521.817 21.2216C521.817 21.732 521.898 22.206 522.061 22.6435C522.223 23.081 522.473 23.4339 522.811 23.7024C523.149 23.9709 523.58 24.1051 524.104 24.1051ZM530.528 14.8182V25H529.355V14.8182H530.528ZM537.49 21.8778V17.3636H538.663V25H537.49V23.7074H537.41C537.231 24.0952 536.953 24.425 536.575 24.6967C536.197 24.9652 535.72 25.0994 535.143 25.0994C534.666 25.0994 534.242 24.995 533.871 24.7862C533.499 24.5741 533.208 24.2559 532.996 23.8317C532.783 23.4041 532.677 22.8655 532.677 22.2159V17.3636H533.851V22.1364C533.851 22.6932 534.006 23.1373 534.318 23.4688C534.633 23.8002 535.034 23.9659 535.521 23.9659C535.813 23.9659 536.109 23.8913 536.411 23.7422C536.716 23.593 536.971 23.3643 537.177 23.0561C537.385 22.7479 537.49 22.3551 537.49 21.8778ZM544.133 17.3636V18.358H540.176V17.3636H544.133ZM541.329 15.5341H542.502V22.8125C542.502 23.1439 542.551 23.3925 542.647 23.5582C542.746 23.7206 542.872 23.83 543.025 23.8864C543.18 23.9394 543.344 23.9659 543.517 23.9659C543.646 23.9659 543.752 23.9593 543.835 23.946C543.918 23.9295 543.984 23.9162 544.034 23.9062L544.272 24.9602C544.193 24.9901 544.082 25.0199 543.939 25.0497C543.797 25.0829 543.616 25.0994 543.397 25.0994C543.066 25.0994 542.741 25.0282 542.423 24.8857C542.108 24.7431 541.846 24.526 541.637 24.2344C541.432 23.9427 541.329 23.5748 541.329 23.1307V15.5341ZM545.898 25V17.3636H547.071V25H545.898ZM546.495 16.0909C546.266 16.0909 546.069 16.013 545.903 15.8572C545.741 15.7015 545.659 15.5142 545.659 15.2955C545.659 15.0767 545.741 14.8894 545.903 14.7337C546.069 14.5779 546.266 14.5 546.495 14.5C546.723 14.5 546.919 14.5779 547.081 14.7337C547.247 14.8894 547.33 15.0767 547.33 15.2955C547.33 15.5142 547.247 15.7015 547.081 15.8572C546.919 16.013 546.723 16.0909 546.495 16.0909ZM552.323 25.1591C551.633 25.1591 551.028 24.995 550.508 24.6669C549.991 24.3388 549.587 23.8797 549.295 23.2898C549.007 22.6998 548.862 22.0104 548.862 21.2216C548.862 20.4261 549.007 19.7318 549.295 19.1385C549.587 18.5452 549.991 18.0845 550.508 17.7564C551.028 17.4283 551.633 17.2642 552.323 17.2642C553.012 17.2642 553.615 17.4283 554.132 17.7564C554.653 18.0845 555.057 18.5452 555.345 19.1385C555.637 19.7318 555.783 20.4261 555.783 21.2216C555.783 22.0104 555.637 22.6998 555.345 23.2898C555.057 23.8797 554.653 24.3388 554.132 24.6669C553.615 24.995 553.012 25.1591 552.323 25.1591ZM552.323 24.1051C552.846 24.1051 553.277 23.9709 553.615 23.7024C553.953 23.4339 554.204 23.081 554.366 22.6435C554.528 22.206 554.61 21.732 554.61 21.2216C554.61 20.7112 554.528 20.2356 554.366 19.7947C554.204 19.3539 553.953 18.9976 553.615 18.7259C553.277 18.4541 552.846 18.3182 552.323 18.3182C551.799 18.3182 551.368 18.4541 551.03 18.7259C550.692 18.9976 550.442 19.3539 550.279 19.7947C550.117 20.2356 550.036 20.7112 550.036 21.2216C550.036 21.732 550.117 22.206 550.279 22.6435C550.442 23.081 550.692 23.4339 551.03 23.7024C551.368 23.9709 551.799 24.1051 552.323 24.1051ZM558.747 20.4062V25H557.574V17.3636H558.707V18.5568H558.807C558.986 18.169 559.258 17.8575 559.622 17.6222C559.987 17.3835 560.457 17.2642 561.034 17.2642C561.551 17.2642 562.004 17.3703 562.391 17.5824C562.779 17.7912 563.081 18.1094 563.296 18.5369C563.512 18.9612 563.619 19.4981 563.619 20.1477V25H562.446V20.2273C562.446 19.6274 562.29 19.16 561.979 18.8253C561.667 18.4872 561.24 18.3182 560.696 18.3182C560.321 18.3182 559.987 18.3994 559.692 18.5618C559.4 18.7242 559.17 18.9612 559.001 19.2727C558.832 19.5843 558.747 19.9621 558.747 20.4062ZM571.172 19.0739L570.118 19.3722C570.052 19.1965 569.954 19.0258 569.825 18.8601C569.699 18.6911 569.527 18.5518 569.308 18.4425C569.089 18.3331 568.809 18.2784 568.468 18.2784C568.001 18.2784 567.611 18.3861 567.3 18.6016C566.991 18.8137 566.837 19.0838 566.837 19.4119C566.837 19.7036 566.943 19.9339 567.155 20.103C567.367 20.272 567.699 20.4129 568.15 20.5256L569.283 20.804C569.966 20.9697 570.475 21.2232 570.809 21.5646C571.144 21.9027 571.312 22.3385 571.312 22.8722C571.312 23.3097 571.186 23.7008 570.934 24.0455C570.685 24.3902 570.337 24.6619 569.89 24.8608C569.442 25.0597 568.922 25.1591 568.329 25.1591C567.55 25.1591 566.905 24.9901 566.395 24.652C565.884 24.3139 565.561 23.8201 565.425 23.1705L566.539 22.892C566.645 23.303 566.845 23.6113 567.14 23.8168C567.439 24.0223 567.828 24.125 568.309 24.125C568.856 24.125 569.29 24.009 569.611 23.777C569.936 23.5417 570.099 23.2599 570.099 22.9318C570.099 22.6667 570.006 22.4446 569.82 22.2656C569.635 22.0833 569.349 21.9474 568.965 21.858L567.692 21.5597C566.993 21.3939 566.479 21.1371 566.151 20.7891C565.826 20.4377 565.664 19.9986 565.664 19.4716C565.664 19.0407 565.785 18.6596 566.027 18.3281C566.272 17.9967 566.605 17.7365 567.026 17.5476C567.45 17.3587 567.931 17.2642 568.468 17.2642C569.224 17.2642 569.817 17.4299 570.248 17.7614C570.682 18.0928 570.99 18.5303 571.172 19.0739Z" fill="#35224A"/>
<path d="M684.233 25V14.8182H690.378V15.9119H685.466V19.3523H690.06V20.446H685.466V23.9062H690.457V25H684.233ZM698.685 17.3636L695.862 25H694.668L691.844 17.3636H693.117L695.225 23.4489H695.305L697.413 17.3636H698.685ZM703.162 25.1591C702.426 25.1591 701.792 24.9967 701.258 24.6719C700.728 24.3438 700.319 23.8864 700.03 23.2997C699.745 22.7098 699.603 22.0237 699.603 21.2415C699.603 20.4593 699.745 19.7699 700.03 19.1733C700.319 18.5734 700.72 18.1061 701.233 17.7713C701.75 17.4332 702.354 17.2642 703.043 17.2642C703.441 17.2642 703.833 17.3305 704.221 17.4631C704.609 17.5956 704.962 17.8111 705.28 18.1094C705.598 18.4044 705.852 18.7955 706.041 19.2827C706.23 19.7699 706.324 20.3698 706.324 21.0824V21.5795H700.438V20.5653H705.131C705.131 20.1345 705.045 19.75 704.873 19.4119C704.703 19.0739 704.462 18.8071 704.147 18.6115C703.835 18.416 703.467 18.3182 703.043 18.3182C702.576 18.3182 702.171 18.4342 701.83 18.6662C701.492 18.8949 701.232 19.1932 701.049 19.5611C700.867 19.929 700.776 20.3234 700.776 20.7443V21.4205C700.776 21.9972 700.875 22.486 701.074 22.8871C701.276 23.2848 701.556 23.5881 701.914 23.7969C702.272 24.0024 702.688 24.1051 703.162 24.1051C703.471 24.1051 703.749 24.062 703.998 23.9759C704.249 23.8864 704.467 23.7538 704.649 23.5781C704.831 23.3991 704.972 23.1771 705.071 22.9119L706.205 23.2301C706.086 23.6146 705.885 23.9527 705.603 24.2443C705.322 24.5327 704.974 24.758 704.559 24.9205C704.145 25.0795 703.679 25.1591 703.162 25.1591ZM709.282 20.4062V25H708.109V17.3636H709.243V18.5568H709.342C709.521 18.169 709.793 17.8575 710.157 17.6222C710.522 17.3835 710.993 17.2642 711.569 17.2642C712.086 17.2642 712.539 17.3703 712.926 17.5824C713.314 17.7912 713.616 18.1094 713.831 18.5369C714.047 18.9612 714.154 19.4981 714.154 20.1477V25H712.981V20.2273C712.981 19.6274 712.825 19.16 712.514 18.8253C712.202 18.4872 711.775 18.3182 711.231 18.3182C710.857 18.3182 710.522 18.3994 710.227 18.5618C709.935 18.7242 709.705 18.9612 709.536 19.2727C709.367 19.5843 709.282 19.9621 709.282 20.4062ZM719.619 17.3636V18.358H715.662V17.3636H719.619ZM716.816 15.5341H717.989V22.8125C717.989 23.1439 718.037 23.3925 718.133 23.5582C718.232 23.7206 718.358 23.83 718.511 23.8864C718.667 23.9394 718.831 23.9659 719.003 23.9659C719.132 23.9659 719.238 23.9593 719.321 23.946C719.404 23.9295 719.47 23.9162 719.52 23.9062L719.759 24.9602C719.679 24.9901 719.568 25.0199 719.426 25.0497C719.283 25.0829 719.102 25.0994 718.884 25.0994C718.552 25.0994 718.227 25.0282 717.909 24.8857C717.594 24.7431 717.333 24.526 717.124 24.2344C716.918 23.9427 716.816 23.5748 716.816 23.1307V15.5341ZM726.657 19.0739L725.603 19.3722C725.537 19.1965 725.439 19.0258 725.309 18.8601C725.184 18.6911 725.011 18.5518 724.792 18.4425C724.574 18.3331 724.294 18.2784 723.952 18.2784C723.485 18.2784 723.095 18.3861 722.784 18.6016C722.476 18.8137 722.322 19.0838 722.322 19.4119C722.322 19.7036 722.428 19.9339 722.64 20.103C722.852 20.272 723.183 20.4129 723.634 20.5256L724.768 20.804C725.45 20.9697 725.959 21.2232 726.294 21.5646C726.629 21.9027 726.796 22.3385 726.796 22.8722C726.796 23.3097 726.67 23.7008 726.418 24.0455C726.17 24.3902 725.822 24.6619 725.374 24.8608C724.927 25.0597 724.406 25.1591 723.813 25.1591C723.034 25.1591 722.39 24.9901 721.879 24.652C721.369 24.3139 721.046 23.8201 720.91 23.1705L722.023 22.892C722.129 23.303 722.33 23.6113 722.625 23.8168C722.923 24.0223 723.313 24.125 723.793 24.125C724.34 24.125 724.774 24.009 725.096 23.777C725.421 23.5417 725.583 23.2599 725.583 22.9318C725.583 22.6667 725.49 22.4446 725.305 22.2656C725.119 22.0833 724.834 21.9474 724.449 21.858L723.177 21.5597C722.477 21.3939 721.964 21.1371 721.635 20.7891C721.311 20.4377 721.148 19.9986 721.148 19.4716C721.148 19.0407 721.269 18.6596 721.511 18.3281C721.756 17.9967 722.09 17.7365 722.51 17.5476C722.935 17.3587 723.415 17.2642 723.952 17.2642C724.708 17.2642 725.301 17.4299 725.732 17.7614C726.166 18.0928 726.474 18.5303 726.657 19.0739Z" fill="#35224A"/>
<path d="M594.233 25V14.8182H597.673C598.469 14.8182 599.122 14.9541 599.632 15.2259C600.143 15.4943 600.52 15.8639 600.766 16.3345C601.011 16.8052 601.134 17.3404 601.134 17.9403C601.134 18.5402 601.011 19.0722 600.766 19.5362C600.52 20.0002 600.144 20.3648 599.637 20.63C599.13 20.8918 598.482 21.0227 597.693 21.0227H594.909V19.9091H597.653C598.197 19.9091 598.634 19.8295 598.966 19.6705C599.301 19.5114 599.543 19.286 599.692 18.9943C599.844 18.6993 599.92 18.348 599.92 17.9403C599.92 17.5327 599.844 17.1764 599.692 16.8714C599.539 16.5665 599.296 16.3312 598.961 16.1655C598.626 15.9964 598.184 15.9119 597.634 15.9119H595.466V25H594.233ZM599.026 20.4261L601.531 25H600.099L597.634 20.4261H599.026ZM606.149 25.1591C605.413 25.1591 604.778 24.9967 604.244 24.6719C603.714 24.3438 603.305 23.8864 603.017 23.2997C602.731 22.7098 602.589 22.0237 602.589 21.2415C602.589 20.4593 602.731 19.7699 603.017 19.1733C603.305 18.5734 603.706 18.1061 604.22 17.7713C604.737 17.4332 605.34 17.2642 606.029 17.2642C606.427 17.2642 606.82 17.3305 607.208 17.4631C607.595 17.5956 607.948 17.8111 608.267 18.1094C608.585 18.4044 608.838 18.7955 609.027 19.2827C609.216 19.7699 609.311 20.3698 609.311 21.0824V21.5795H603.424V20.5653H608.117C608.117 20.1345 608.031 19.75 607.859 19.4119C607.69 19.0739 607.448 18.8071 607.133 18.6115C606.821 18.416 606.454 18.3182 606.029 18.3182C605.562 18.3182 605.158 18.4342 604.816 18.6662C604.478 18.8949 604.218 19.1932 604.036 19.5611C603.853 19.929 603.762 20.3234 603.762 20.7443V21.4205C603.762 21.9972 603.862 22.486 604.061 22.8871C604.263 23.2848 604.543 23.5881 604.901 23.7969C605.259 24.0024 605.675 24.1051 606.149 24.1051C606.457 24.1051 606.735 24.062 606.984 23.9759C607.236 23.8864 607.453 23.7538 607.635 23.5781C607.817 23.3991 607.958 23.1771 608.058 22.9119L609.191 23.2301C609.072 23.6146 608.871 23.9527 608.59 24.2443C608.308 24.5327 607.96 24.758 607.546 24.9205C607.131 25.0795 606.666 25.1591 606.149 25.1591ZM616.504 19.0739L615.45 19.3722C615.384 19.1965 615.286 19.0258 615.157 18.8601C615.031 18.6911 614.859 18.5518 614.64 18.4425C614.421 18.3331 614.141 18.2784 613.8 18.2784C613.333 18.2784 612.943 18.3861 612.632 18.6016C612.323 18.8137 612.169 19.0838 612.169 19.4119C612.169 19.7036 612.275 19.9339 612.487 20.103C612.7 20.272 613.031 20.4129 613.482 20.5256L614.615 20.804C615.298 20.9697 615.807 21.2232 616.142 21.5646C616.476 21.9027 616.644 22.3385 616.644 22.8722C616.644 23.3097 616.518 23.7008 616.266 24.0455C616.017 24.3902 615.669 24.6619 615.222 24.8608C614.774 25.0597 614.254 25.1591 613.661 25.1591C612.882 25.1591 612.237 24.9901 611.727 24.652C611.216 24.3139 610.893 23.8201 610.757 23.1705L611.871 22.892C611.977 23.303 612.177 23.6113 612.472 23.8168C612.771 24.0223 613.16 24.125 613.641 24.125C614.188 24.125 614.622 24.009 614.943 23.777C615.268 23.5417 615.431 23.2599 615.431 22.9318C615.431 22.6667 615.338 22.4446 615.152 22.2656C614.967 22.0833 614.682 21.9474 614.297 21.858L613.024 21.5597C612.325 21.3939 611.811 21.1371 611.483 20.7891C611.158 20.4377 610.996 19.9986 610.996 19.4716C610.996 19.0407 611.117 18.6596 611.359 18.3281C611.604 17.9967 611.937 17.7365 612.358 17.5476C612.782 17.3587 613.263 17.2642 613.8 17.2642C614.556 17.2642 615.149 17.4299 615.58 17.7614C616.014 18.0928 616.322 18.5303 616.504 19.0739ZM621.512 25.1591C620.823 25.1591 620.218 24.995 619.697 24.6669C619.18 24.3388 618.776 23.8797 618.484 23.2898C618.196 22.6998 618.052 22.0104 618.052 21.2216C618.052 20.4261 618.196 19.7318 618.484 19.1385C618.776 18.5452 619.18 18.0845 619.697 17.7564C620.218 17.4283 620.823 17.2642 621.512 17.2642C622.201 17.2642 622.805 17.4283 623.322 17.7564C623.842 18.0845 624.246 18.5452 624.535 19.1385C624.826 19.7318 624.972 20.4261 624.972 21.2216C624.972 22.0104 624.826 22.6998 624.535 23.2898C624.246 23.8797 623.842 24.3388 623.322 24.6669C622.805 24.995 622.201 25.1591 621.512 25.1591ZM621.512 24.1051C622.036 24.1051 622.467 23.9709 622.805 23.7024C623.143 23.4339 623.393 23.081 623.555 22.6435C623.718 22.206 623.799 21.732 623.799 21.2216C623.799 20.7112 623.718 20.2356 623.555 19.7947C623.393 19.3539 623.143 18.9976 622.805 18.7259C622.467 18.4541 622.036 18.3182 621.512 18.3182C620.988 18.3182 620.558 18.4541 620.219 18.7259C619.881 18.9976 619.631 19.3539 619.469 19.7947C619.306 20.2356 619.225 20.7112 619.225 21.2216C619.225 21.732 619.306 22.206 619.469 22.6435C619.631 23.081 619.881 23.4339 620.219 23.7024C620.558 23.9709 620.988 24.1051 621.512 24.1051ZM631.576 21.8778V17.3636H632.749V25H631.576V23.7074H631.496C631.317 24.0952 631.039 24.425 630.661 24.6967C630.283 24.9652 629.806 25.0994 629.229 25.0994C628.752 25.0994 628.328 24.995 627.956 24.7862C627.585 24.5741 627.294 24.2559 627.081 23.8317C626.869 23.4041 626.763 22.8655 626.763 22.2159V17.3636H627.937V22.1364C627.937 22.6932 628.092 23.1373 628.404 23.4688C628.719 23.8002 629.12 23.9659 629.607 23.9659C629.899 23.9659 630.195 23.8913 630.497 23.7422C630.802 23.593 631.057 23.3643 631.263 23.0561C631.471 22.7479 631.576 22.3551 631.576 21.8778ZM634.898 25V17.3636H636.032V18.517H636.111C636.25 18.1392 636.502 17.8326 636.867 17.5973C637.231 17.362 637.642 17.2443 638.1 17.2443C638.186 17.2443 638.294 17.246 638.423 17.2493C638.552 17.2526 638.65 17.2576 638.716 17.2642V18.4574C638.676 18.4474 638.585 18.4325 638.443 18.4126C638.304 18.3894 638.156 18.3778 638 18.3778C637.629 18.3778 637.298 18.4557 637.006 18.6115C636.718 18.764 636.489 18.9761 636.32 19.2479C636.154 19.5163 636.071 19.8229 636.071 20.1676V25H634.898ZM642.977 25.1591C642.261 25.1591 641.645 24.9901 641.127 24.652C640.61 24.3139 640.213 23.8482 639.934 23.255C639.656 22.6617 639.517 21.9839 639.517 21.2216C639.517 20.446 639.659 19.7616 639.944 19.1683C640.233 18.5717 640.634 18.1061 641.147 17.7713C641.664 17.4332 642.268 17.2642 642.957 17.2642C643.494 17.2642 643.978 17.3636 644.409 17.5625C644.84 17.7614 645.193 18.0398 645.468 18.3977C645.743 18.7557 645.913 19.1733 645.98 19.6506H644.806C644.717 19.3026 644.518 18.9943 644.21 18.7259C643.905 18.4541 643.494 18.3182 642.977 18.3182C642.52 18.3182 642.118 18.4375 641.774 18.6761C641.432 18.9115 641.166 19.2446 640.973 19.6754C640.784 20.103 640.69 20.6051 640.69 21.1818C640.69 21.7718 640.783 22.2855 640.968 22.723C641.157 23.1605 641.422 23.5002 641.764 23.7422C642.109 23.9841 642.513 24.1051 642.977 24.1051C643.282 24.1051 643.559 24.0521 643.807 23.946C644.056 23.84 644.266 23.6875 644.439 23.4886C644.611 23.2898 644.734 23.0511 644.806 22.7727H645.98C645.913 23.2235 645.749 23.6295 645.488 23.9908C645.229 24.3487 644.886 24.6338 644.458 24.8459C644.034 25.0547 643.54 25.1591 642.977 25.1591ZM650.897 25.1591C650.161 25.1591 649.526 24.9967 648.993 24.6719C648.462 24.3438 648.053 23.8864 647.765 23.2997C647.48 22.7098 647.337 22.0237 647.337 21.2415C647.337 20.4593 647.48 19.7699 647.765 19.1733C648.053 18.5734 648.454 18.1061 648.968 17.7713C649.485 17.4332 650.088 17.2642 650.777 17.2642C651.175 17.2642 651.568 17.3305 651.956 17.4631C652.343 17.5956 652.696 17.8111 653.015 18.1094C653.333 18.4044 653.586 18.7955 653.775 19.2827C653.964 19.7699 654.059 20.3698 654.059 21.0824V21.5795H648.172V20.5653H652.865C652.865 20.1345 652.779 19.75 652.607 19.4119C652.438 19.0739 652.196 18.8071 651.881 18.6115C651.569 18.416 651.202 18.3182 650.777 18.3182C650.31 18.3182 649.906 18.4342 649.564 18.6662C649.226 18.8949 648.966 19.1932 648.784 19.5611C648.601 19.929 648.51 20.3234 648.51 20.7443V21.4205C648.51 21.9972 648.61 22.486 648.809 22.8871C649.011 23.2848 649.291 23.5881 649.649 23.7969C650.007 24.0024 650.423 24.1051 650.897 24.1051C651.205 24.1051 651.483 24.062 651.732 23.9759C651.984 23.8864 652.201 23.7538 652.383 23.5781C652.565 23.3991 652.706 23.1771 652.806 22.9119L653.939 23.2301C653.82 23.6146 653.619 23.9527 653.338 24.2443C653.056 24.5327 652.708 24.758 652.294 24.9205C651.879 25.0795 651.414 25.1591 650.897 25.1591ZM661.252 19.0739L660.199 19.3722C660.132 19.1965 660.034 19.0258 659.905 18.8601C659.779 18.6911 659.607 18.5518 659.388 18.4425C659.169 18.3331 658.889 18.2784 658.548 18.2784C658.081 18.2784 657.691 18.3861 657.38 18.6016C657.071 18.8137 656.917 19.0838 656.917 19.4119C656.917 19.7036 657.023 19.9339 657.235 20.103C657.448 20.272 657.779 20.4129 658.23 20.5256L659.363 20.804C660.046 20.9697 660.555 21.2232 660.89 21.5646C661.224 21.9027 661.392 22.3385 661.392 22.8722C661.392 23.3097 661.266 23.7008 661.014 24.0455C660.765 24.3902 660.417 24.6619 659.97 24.8608C659.522 25.0597 659.002 25.1591 658.409 25.1591C657.63 25.1591 656.985 24.9901 656.475 24.652C655.964 24.3139 655.641 23.8201 655.505 23.1705L656.619 22.892C656.725 23.303 656.926 23.6113 657.221 23.8168C657.519 24.0223 657.908 24.125 658.389 24.125C658.936 24.125 659.37 24.009 659.691 23.777C660.016 23.5417 660.179 23.2599 660.179 22.9318C660.179 22.6667 660.086 22.4446 659.9 22.2656C659.715 22.0833 659.43 21.9474 659.045 21.858L657.772 21.5597C657.073 21.3939 656.559 21.1371 656.231 20.7891C655.906 20.4377 655.744 19.9986 655.744 19.4716C655.744 19.0407 655.865 18.6596 656.107 18.3281C656.352 17.9967 656.685 17.7365 657.106 17.5476C657.53 17.3587 658.011 17.2642 658.548 17.2642C659.304 17.2642 659.897 17.4299 660.328 17.7614C660.762 18.0928 661.07 18.5303 661.252 19.0739Z" fill="#35224A"/>
<path d="M749.651 25H748.358L752.097 14.8182H753.369L757.108 25H755.815L752.773 16.429H752.693L749.651 25ZM750.128 21.0227H755.338V22.1165H750.128V21.0227ZM758.694 25V14.8182H759.867V18.5767H759.967C760.053 18.4441 760.172 18.2751 760.325 18.0696C760.48 17.8608 760.702 17.6752 760.991 17.5128C761.282 17.3471 761.677 17.2642 762.174 17.2642C762.817 17.2642 763.384 17.425 763.874 17.7464C764.365 18.0679 764.748 18.5237 765.023 19.1136C765.298 19.7036 765.435 20.3996 765.435 21.2017C765.435 22.0104 765.298 22.7114 765.023 23.3047C764.748 23.8946 764.366 24.352 763.879 24.6768C763.392 24.9983 762.83 25.1591 762.194 25.1591C761.703 25.1591 761.311 25.0779 761.016 24.9155C760.721 24.7498 760.494 24.5625 760.335 24.3537C760.175 24.1416 760.053 23.9659 759.967 23.8267H759.827V25H758.694ZM759.847 21.1818C759.847 21.7585 759.932 22.2673 760.101 22.7081C760.27 23.1456 760.517 23.4886 760.842 23.7372C761.166 23.9825 761.564 24.1051 762.035 24.1051C762.525 24.1051 762.935 23.9759 763.263 23.7173C763.594 23.4555 763.843 23.1042 764.009 22.6634C764.178 22.2192 764.262 21.7254 764.262 21.1818C764.262 20.6449 764.179 20.161 764.013 19.7301C763.851 19.2959 763.604 18.9529 763.273 18.701C762.945 18.4458 762.532 18.3182 762.035 18.3182C761.558 18.3182 761.156 18.4392 760.832 18.6811C760.507 18.9197 760.262 19.2545 760.096 19.6854C759.93 20.1129 759.847 20.6117 759.847 21.1818ZM770.332 25.1591C769.643 25.1591 769.038 24.995 768.518 24.6669C768.001 24.3388 767.596 23.8797 767.305 23.2898C767.016 22.6998 766.872 22.0104 766.872 21.2216C766.872 20.4261 767.016 19.7318 767.305 19.1385C767.596 18.5452 768.001 18.0845 768.518 17.7564C769.038 17.4283 769.643 17.2642 770.332 17.2642C771.022 17.2642 771.625 17.4283 772.142 17.7564C772.662 18.0845 773.067 18.5452 773.355 19.1385C773.647 19.7318 773.793 20.4261 773.793 21.2216C773.793 22.0104 773.647 22.6998 773.355 23.2898C773.067 23.8797 772.662 24.3388 772.142 24.6669C771.625 24.995 771.022 25.1591 770.332 25.1591ZM770.332 24.1051C770.856 24.1051 771.287 23.9709 771.625 23.7024C771.963 23.4339 772.213 23.081 772.376 22.6435C772.538 22.206 772.619 21.732 772.619 21.2216C772.619 20.7112 772.538 20.2356 772.376 19.7947C772.213 19.3539 771.963 18.9976 771.625 18.7259C771.287 18.4541 770.856 18.3182 770.332 18.3182C769.809 18.3182 769.378 18.4541 769.04 18.7259C768.702 18.9976 768.451 19.3539 768.289 19.7947C768.127 20.2356 768.045 20.7112 768.045 21.2216C768.045 21.732 768.127 22.206 768.289 22.6435C768.451 23.081 768.702 23.4339 769.04 23.7024C769.378 23.9709 769.809 24.1051 770.332 24.1051ZM780.396 21.8778V17.3636H781.569V25H780.396V23.7074H780.317C780.138 24.0952 779.859 24.425 779.481 24.6967C779.104 24.9652 778.626 25.0994 778.05 25.0994C777.572 25.0994 777.148 24.995 776.777 24.7862C776.406 24.5741 776.114 24.2559 775.902 23.8317C775.69 23.4041 775.584 22.8655 775.584 22.2159V17.3636H776.757V22.1364C776.757 22.6932 776.913 23.1373 777.224 23.4688C777.539 23.8002 777.94 23.9659 778.427 23.9659C778.719 23.9659 779.016 23.8913 779.317 23.7422C779.622 23.593 779.877 23.3643 780.083 23.0561C780.292 22.7479 780.396 22.3551 780.396 21.8778ZM787.039 17.3636V18.358H783.082V17.3636H787.039ZM784.235 15.5341H785.409V22.8125C785.409 23.1439 785.457 23.3925 785.553 23.5582C785.652 23.7206 785.778 23.83 785.931 23.8864C786.087 23.9394 786.251 23.9659 786.423 23.9659C786.552 23.9659 786.658 23.9593 786.741 23.946C786.824 23.9295 786.89 23.9162 786.94 23.9062L787.179 24.9602C787.099 24.9901 786.988 25.0199 786.846 25.0497C786.703 25.0829 786.522 25.0994 786.304 25.0994C785.972 25.0994 785.647 25.0282 785.329 24.8857C785.014 24.7431 784.752 24.526 784.544 24.2344C784.338 23.9427 784.235 23.5748 784.235 23.1307V15.5341Z" fill="#35224A"/>
<path d="M817.426 18H816.193C816.12 17.6454 815.993 17.3338 815.81 17.0653C815.631 16.7969 815.413 16.5715 815.154 16.3892C814.899 16.2036 814.616 16.0644 814.304 15.9716C813.992 15.8788 813.668 15.8324 813.33 15.8324C812.713 15.8324 812.155 15.9882 811.654 16.2997C811.157 16.6113 810.761 17.0703 810.466 17.6768C810.174 18.2834 810.028 19.0275 810.028 19.9091C810.028 20.7907 810.174 21.5348 810.466 22.1413C810.761 22.7479 811.157 23.2069 811.654 23.5185C812.155 23.83 812.713 23.9858 813.33 23.9858C813.668 23.9858 813.992 23.9394 814.304 23.8466C814.616 23.7538 814.899 23.6162 815.154 23.4339C815.413 23.2483 815.631 23.0213 815.81 22.7528C815.993 22.4811 816.12 22.1695 816.193 21.8182H817.426C817.333 22.3385 817.164 22.8042 816.919 23.2152C816.674 23.6262 816.369 23.9759 816.004 24.2642C815.64 24.5492 815.23 24.7663 814.776 24.9155C814.326 25.0646 813.843 25.1392 813.33 25.1392C812.461 25.1392 811.689 24.9271 811.013 24.5028C810.337 24.0786 809.805 23.4754 809.417 22.6932C809.029 21.911 808.835 20.983 808.835 19.9091C808.835 18.8352 809.029 17.9072 809.417 17.125C809.805 16.3428 810.337 15.7396 811.013 15.3153C811.689 14.8911 812.461 14.679 813.33 14.679C813.843 14.679 814.326 14.7536 814.776 14.9027C815.23 15.0518 815.64 15.2706 816.004 15.5589C816.369 15.844 816.674 16.192 816.919 16.603C817.164 17.0107 817.333 17.4763 817.426 18ZM822.362 25.1591C821.672 25.1591 821.067 24.995 820.547 24.6669C820.03 24.3388 819.626 23.8797 819.334 23.2898C819.046 22.6998 818.901 22.0104 818.901 21.2216C818.901 20.4261 819.046 19.7318 819.334 19.1385C819.626 18.5452 820.03 18.0845 820.547 17.7564C821.067 17.4283 821.672 17.2642 822.362 17.2642C823.051 17.2642 823.654 17.4283 824.171 17.7564C824.692 18.0845 825.096 18.5452 825.384 19.1385C825.676 19.7318 825.822 20.4261 825.822 21.2216C825.822 22.0104 825.676 22.6998 825.384 23.2898C825.096 23.8797 824.692 24.3388 824.171 24.6669C823.654 24.995 823.051 25.1591 822.362 25.1591ZM822.362 24.1051C822.885 24.1051 823.316 23.9709 823.654 23.7024C823.992 23.4339 824.243 23.081 824.405 22.6435C824.567 22.206 824.649 21.732 824.649 21.2216C824.649 20.7112 824.567 20.2356 824.405 19.7947C824.243 19.3539 823.992 18.9976 823.654 18.7259C823.316 18.4541 822.885 18.3182 822.362 18.3182C821.838 18.3182 821.407 18.4541 821.069 18.7259C820.731 18.9976 820.481 19.3539 820.318 19.7947C820.156 20.2356 820.075 20.7112 820.075 21.2216C820.075 21.732 820.156 22.206 820.318 22.6435C820.481 23.081 820.731 23.4339 821.069 23.7024C821.407 23.9709 821.838 24.1051 822.362 24.1051ZM828.786 20.4062V25H827.613V17.3636H828.746V18.5568H828.846C829.025 18.169 829.297 17.8575 829.661 17.6222C830.026 17.3835 830.496 17.2642 831.073 17.2642C831.59 17.2642 832.043 17.3703 832.43 17.5824C832.818 17.7912 833.12 18.1094 833.335 18.5369C833.551 18.9612 833.658 19.4981 833.658 20.1477V25H832.485V20.2273C832.485 19.6274 832.329 19.16 832.018 18.8253C831.706 18.4872 831.279 18.3182 830.735 18.3182C830.361 18.3182 830.026 18.3994 829.731 18.5618C829.439 18.7242 829.209 18.9612 829.04 19.2727C828.871 19.5843 828.786 19.9621 828.786 20.4062ZM839.123 17.3636V18.358H835.166V17.3636H839.123ZM836.319 15.5341H837.493V22.8125C837.493 23.1439 837.541 23.3925 837.637 23.5582C837.736 23.7206 837.862 23.83 838.015 23.8864C838.171 23.9394 838.335 23.9659 838.507 23.9659C838.636 23.9659 838.742 23.9593 838.825 23.946C838.908 23.9295 838.974 23.9162 839.024 23.9062L839.263 24.9602C839.183 24.9901 839.072 25.0199 838.93 25.0497C838.787 25.0829 838.606 25.0994 838.388 25.0994C838.056 25.0994 837.731 25.0282 837.413 24.8857C837.098 24.7431 836.836 24.526 836.628 24.2344C836.422 23.9427 836.319 23.5748 836.319 23.1307V15.5341ZM843.135 25.179C842.652 25.179 842.212 25.0878 841.818 24.9055C841.424 24.7199 841.11 24.4531 840.878 24.1051C840.646 23.7538 840.53 23.3295 840.53 22.8324C840.53 22.3949 840.617 22.0402 840.789 21.7685C840.961 21.4934 841.192 21.2779 841.48 21.1222C841.768 20.9664 842.086 20.8504 842.434 20.7741C842.786 20.6946 843.139 20.6316 843.493 20.5852C843.957 20.5256 844.334 20.4808 844.622 20.451C844.914 20.4179 845.126 20.3632 845.258 20.2869C845.394 20.2107 845.462 20.0781 845.462 19.8892V19.8494C845.462 19.3589 845.328 18.9777 845.059 18.706C844.794 18.4342 844.392 18.2983 843.851 18.2983C843.291 18.2983 842.852 18.4209 842.534 18.6662C842.216 18.9115 841.992 19.1733 841.863 19.4517L840.749 19.054C840.948 18.59 841.213 18.2287 841.545 17.9702C841.879 17.7083 842.244 17.526 842.638 17.4233C843.036 17.3172 843.427 17.2642 843.812 17.2642C844.057 17.2642 844.339 17.294 844.657 17.3537C844.978 17.41 845.288 17.5277 845.586 17.7067C845.888 17.8857 846.138 18.1558 846.337 18.517C846.536 18.8783 846.635 19.3622 846.635 19.9688V25H845.462V23.9659H845.403C845.323 24.1316 845.19 24.3089 845.005 24.4979C844.819 24.6868 844.572 24.8475 844.264 24.9801C843.956 25.1127 843.58 25.179 843.135 25.179ZM843.314 24.125C843.778 24.125 844.17 24.0339 844.488 23.8516C844.809 23.6693 845.051 23.4339 845.214 23.1456C845.379 22.8572 845.462 22.554 845.462 22.2358V21.1619C845.412 21.2216 845.303 21.2763 845.134 21.326C844.968 21.3724 844.776 21.4138 844.557 21.4503C844.342 21.4834 844.131 21.5133 843.926 21.5398C843.724 21.563 843.56 21.5829 843.434 21.5994C843.129 21.6392 842.844 21.7038 842.579 21.7933C842.317 21.8795 842.105 22.0104 841.942 22.1861C841.783 22.3584 841.704 22.5937 841.704 22.892C841.704 23.2997 841.854 23.608 842.156 23.8168C842.461 24.0223 842.847 24.125 843.314 24.125ZM851.879 25.1591C851.163 25.1591 850.547 24.9901 850.03 24.652C849.513 24.3139 849.115 23.8482 848.837 23.255C848.558 22.6617 848.419 21.9839 848.419 21.2216C848.419 20.446 848.562 19.7616 848.847 19.1683C849.135 18.5717 849.536 18.1061 850.05 17.7713C850.567 17.4332 851.17 17.2642 851.859 17.2642C852.396 17.2642 852.88 17.3636 853.311 17.5625C853.742 17.7614 854.095 18.0398 854.37 18.3977C854.645 18.7557 854.816 19.1733 854.882 19.6506H853.709C853.619 19.3026 853.42 18.9943 853.112 18.7259C852.807 18.4541 852.396 18.3182 851.879 18.3182C851.422 18.3182 851.021 18.4375 850.676 18.6761C850.335 18.9115 850.068 19.2446 849.876 19.6754C849.687 20.103 849.592 20.6051 849.592 21.1818C849.592 21.7718 849.685 22.2855 849.871 22.723C850.06 23.1605 850.325 23.5002 850.666 23.7422C851.011 23.9841 851.415 24.1051 851.879 24.1051C852.184 24.1051 852.461 24.0521 852.71 23.946C852.958 23.84 853.169 23.6875 853.341 23.4886C853.513 23.2898 853.636 23.0511 853.709 22.7727H854.882C854.816 23.2235 854.652 23.6295 854.39 23.9908C854.131 24.3487 853.788 24.6338 853.361 24.8459C852.937 25.0547 852.443 25.1591 851.879 25.1591ZM859.918 17.3636V18.358H855.961V17.3636H859.918ZM857.114 15.5341H858.288V22.8125C858.288 23.1439 858.336 23.3925 858.432 23.5582C858.531 23.7206 858.657 23.83 858.81 23.8864C858.965 23.9394 859.129 23.9659 859.302 23.9659C859.431 23.9659 859.537 23.9593 859.62 23.946C859.703 23.9295 859.769 23.9162 859.819 23.9062L860.058 24.9602C859.978 24.9901 859.867 25.0199 859.724 25.0497C859.582 25.0829 859.401 25.0994 859.183 25.0994C858.851 25.0994 858.526 25.0282 858.208 24.8857C857.893 24.7431 857.631 24.526 857.423 24.2344C857.217 23.9427 857.114 23.5748 857.114 23.1307V15.5341Z" fill="#35224A"/>
<path d="M50.5216 34.6254H48.9017V38.1319H46.8203V29.0957H51.077C52.8505 29.0957 54.128 30.0491 54.128 31.7307C54.128 32.919 53.4662 33.7541 52.4726 34.1549L54.388 38.1319H52.1062L50.5216 34.6254ZM48.9017 33.0487H50.841C51.4914 33.0487 52.0352 32.6718 52.0352 31.8721C52.0352 31.0722 51.4914 30.6953 50.841 30.6953H48.9017V33.0487Z" fill="black"/>
<path d="M55.9238 38.1319V29.0957H62.2734V30.6962H57.9928V32.7787H61.7056V34.3668H57.9928V36.5314H62.3559V38.1319H55.9238Z" fill="black"/>
<path d="M66.7552 38.1319V30.7201H63.8701V29.0967H71.7208V30.7201H68.8356V38.1319H66.7543H66.7552Z" fill="black"/>
<path d="M77.2791 36.1554H73.7438L73.0695 38.1319H70.9766L74.2876 29.0957H76.7939L80.1163 38.1319H77.9525L77.2782 36.1554H77.2791ZM76.7468 34.5901L75.5287 30.9777H75.5048L74.2751 34.5901H76.7459H76.7468Z" fill="black"/>
<path d="M81.2881 38.1319V29.0957H83.3695V38.1319H81.2881Z" fill="black"/>
<path d="M85.3086 29.0967H87.3899V36.5085H91.6225V38.1319H85.3086V29.0957V29.0967Z" fill="black"/>
<path d="M97.7725 27.8887H99.3682V39.7126H97.7725V27.8887Z" fill="black"/>
<path d="M105.776 33.6376C105.776 30.9901 107.361 28.9668 110.211 28.9668C111.866 28.9668 113.084 29.6731 113.852 30.908L112.35 31.8844C111.877 31.0139 111.216 30.5549 110.281 30.5549C108.638 30.5549 107.881 31.955 107.881 33.6138C107.881 35.2724 108.626 36.6725 110.317 36.6725C111.251 36.6725 111.925 36.2135 112.398 35.3898L113.888 36.3194C113.107 37.5315 111.936 38.2607 110.223 38.2607C107.373 38.2607 105.777 36.308 105.777 33.6366L105.776 33.6376Z" fill="black"/>
<path d="M119.634 29.0967C121.468 29.0967 122.968 30.1675 122.968 32.0849C122.968 34.0022 121.502 35.1322 119.599 35.1322H117.588V38.1329H115.507V29.0967H119.633H119.634ZM119.434 33.5317C120.215 33.5317 120.865 33.0965 120.865 32.1202C120.865 31.1438 120.215 30.6962 119.434 30.6962H117.589V33.5317H119.434Z" fill="black"/>
<path d="M132.83 33.1318V38.1318H131.01L130.963 37.2023H130.939C130.478 37.7787 129.744 38.2617 128.48 38.2617C125.784 38.2617 124.376 36.2145 124.376 33.6844C124.376 31.1543 125.973 28.9668 128.964 28.9668C130.666 28.9668 131.896 29.6492 132.701 30.7906L131.223 31.8138C130.679 30.9901 129.993 30.5549 129.023 30.5549C127.332 30.5549 126.482 31.9083 126.482 33.6491C126.482 35.3898 127.262 36.684 128.894 36.684C130.017 36.684 130.845 36.0255 130.845 34.8487V34.696H128.941V33.1308H132.831L132.83 33.1318Z" fill="black"/>
<path d="M5.93955 0.0238599C4.74828 0.163201 3.53496 0.726293 2.32259 1.70168L2.30341 1.71695L2.27847 1.71314C2.12117 1.68737 1.99264 1.68737 1.82959 1.68737C0.771643 1.76467 -0.0503495 2.69998 0.00240386 3.77272C0.0800951 4.83019 1.02198 5.64906 2.09719 5.59561C2.98153 5.54598 3.74118 4.8655 3.90328 3.97982L3.90711 3.96169L3.92053 3.94928C4.69361 3.2478 5.48491 2.90327 6.32993 2.90327C6.42776 2.90327 6.52751 2.90804 6.62727 2.91758C7.76002 3.04834 8.95896 3.77272 10.296 5.13082C11.61 6.46601 12.9509 8.266 14.2045 10.0116L16.0423 12.6009C16.8172 13.6918 17.6182 14.8198 18.4296 15.8764C19.1471 16.7744 20.1072 17.9092 21.1642 18.7051C22.2873 19.5508 23.3846 19.88 24.5145 19.712L24.8771 19.6481L24.6699 19.4009C22.5348 17.1686 20.8103 14.6318 19.5509 12.7793L17.4005 9.67088C15.8687 7.46813 14.4214 5.38755 12.9068 3.73168C10.65 1.20921 8.64436 0.0238599 6.59465 0C6.28005 0 6.0604 0.00858955 5.93955 0.0238599Z" fill="#A933FB"/>
<path d="M3.98478 10.9831L3.98286 11.0022C3.90325 11.9824 3.1321 12.7497 2.15088 12.826C2.11828 12.828 2.08566 12.828 2.05305 12.828C1.01717 12.828 0.130911 12.0272 0.0551382 11.0032C0.00238482 9.93039 0.824378 8.99509 1.88424 8.91778H2.04154L5.23551 5.66141C5.69975 5.18611 6.34334 4.91889 7.00419 4.94179C7.64682 4.95897 8.23191 5.23193 8.65202 5.71008L8.76039 5.86087L3.98478 10.9821V10.9831Z" fill="#1EACFC"/>
<path d="M2.05933 15.9918L2.01809 15.9899C0.936163 15.9899 0.0556641 16.866 0.0556641 17.9436C0.0556641 19.021 0.936163 19.8972 2.01905 19.8972C2.10921 19.8972 2.19553 19.8848 2.28569 19.8714L2.32406 19.8657C3.22758 19.7244 3.90282 18.9934 3.96805 18.0819V18.0629L12.07 9.34061L10.3071 7.23047L2.05933 15.9918Z" fill="#FFB600"/>
<path d="M31.6375 21.1067C33.1348 20.9396 34.6119 20.1217 36.1656 18.6014L36.182 18.5861H36.4199C37.4759 18.5068 38.2739 17.5725 38.1953 16.5027C38.1176 15.4442 37.1747 14.6234 36.0995 14.6787C35.1077 14.757 34.3481 15.5234 34.2944 16.5017V16.5207L34.281 16.5351C33.1828 17.7806 32.0826 18.3294 30.9229 18.2139C29.7912 18.0831 28.5913 17.3587 27.2552 16.0007C25.9401 14.6645 24.5993 12.8645 23.3467 11.1189L21.5032 8.52199C20.73 7.43398 19.9311 6.3078 19.1215 5.25415C18.4032 4.35606 17.443 3.22129 16.3861 2.42533C15.2629 1.57973 14.1666 1.25047 13.0358 1.41844L12.6895 1.45948L12.9321 1.70094C15.0682 3.93327 16.7937 6.47196 18.0531 8.32443L19.8294 10.8955C21.6288 13.5516 23.1404 15.6733 24.6703 17.3988C26.9262 19.9203 28.9318 21.1057 30.9825 21.1295C31.3066 21.1295 31.4793 21.1209 31.6375 21.1057V21.1067Z" fill="#0074E8"/>
<path d="M36.2629 11.7555H36.3665C36.895 11.7307 37.3765 11.5045 37.7198 11.1189C38.0641 10.7324 38.233 10.2285 38.1956 9.69877C38.1198 8.6728 37.2335 7.87207 36.1977 7.87207C36.1651 7.87207 36.1334 7.87207 36.1008 7.87397C35.0927 7.95128 34.3216 8.74059 34.2678 9.75033V9.77129L28.8467 15.5597L28.9522 15.6857C29.3752 16.1686 29.9699 16.4425 30.6259 16.4559C30.6423 16.4559 30.6585 16.4559 30.6739 16.4559C31.3165 16.4559 31.9323 16.1954 32.3678 15.7362L36.2609 11.7545L36.2629 11.7555Z" fill="#FB24A9"/>
<path d="M25.5127 12.0543L27.2986 14.1683L36.423 4.47352L36.4422 4.4716C37.504 4.36566 38.2742 3.4504 38.1965 2.38721C38.1188 1.32974 37.1779 0.506098 36.1008 0.563361C35.0217 0.641621 34.216 1.54638 34.2687 2.62198V2.64489L25.5117 12.0543H25.5127Z" fill="#FF8500"/>
<path d="M46.1387 17.6362L48.2824 15.3275C49.6953 16.8087 51.6624 17.6619 53.8569 17.6619C56.556 17.6619 57.7665 16.6083 57.7665 14.9763C57.7665 13.1945 56.0765 12.7173 53.176 12.0396C49.9475 11.2618 46.8197 10.1575 46.8197 6.41728C46.8197 3.07977 49.3931 0.669922 53.9836 0.669922C56.9858 0.669922 59.281 1.64913 61.0209 3.35558L59.0277 5.69003C57.6907 4.33479 56.0007 3.50638 53.9327 3.50638C51.5866 3.50638 50.4261 4.61061 50.4261 6.06606C50.4261 7.8231 52.0404 8.19913 54.8909 8.90256C58.2959 9.75577 61.3479 10.8104 61.3479 14.6251C61.3479 18.0886 58.6748 20.4984 53.8311 20.4984C50.5019 20.4984 48.0043 19.4944 46.1377 17.6372L46.1387 17.6362Z" fill="black"/>
<path d="M74.5715 6.74316L69.0478 21.1249C67.9888 23.8859 66.7275 25.0904 64.2299 25.0904C63.4223 25.0904 62.8171 24.9654 62.3634 24.8146V22.3552C62.6914 22.4306 63.0703 22.5059 63.5489 22.5059C64.7594 22.5059 65.4662 22.0545 65.9449 20.5485L60.6484 6.74411H64.2558L67.6608 16.7079H67.7116L71.1166 6.74411H74.5725L74.5715 6.74316Z" fill="black"/>
<path d="M79.1612 8.55023C80.0187 7.21981 81.3308 6.4668 83.1216 6.4668C84.9123 6.4668 86.4009 7.2704 87.1068 8.62563C88.0647 7.17018 89.5538 6.4668 91.3689 6.4668C94.1444 6.4668 95.9857 8.19902 95.9857 10.8093V20.2215H92.581V11.361C92.581 10.1059 91.8496 9.12766 90.3106 9.12766C88.645 9.12766 87.6112 10.2824 87.6112 11.8381V20.2215H84.2064V11.361C84.2064 10.1059 83.4496 9.12766 81.961 9.12766C80.2959 9.12766 79.237 10.2824 79.237 11.8381V20.2215H75.832V6.74357H79.0356L79.1113 8.55023H79.1622H79.1612Z" fill="black"/>
<path d="M101.22 18.4893H101.17V24.8141H97.7656V6.74359H100.969L101.044 8.7516H101.095C102.129 7.321 103.693 6.46777 105.484 6.46777C109.141 6.46777 111.311 9.47986 111.311 13.4206C111.311 17.3613 109.041 20.4983 105.383 20.4983C103.617 20.4983 102.23 19.7711 101.221 18.4903L101.22 18.4893ZM107.855 13.4692C107.855 11.1853 106.821 9.12769 104.45 9.12769C102.206 9.12769 101.07 11.0852 101.07 13.5446C101.07 16.004 102.256 17.8365 104.425 17.8365C106.72 17.8365 107.856 15.9039 107.856 13.4692H107.855Z" fill="black"/>
<path d="M113.092 0.945312H116.496V8.57473H116.546C117.404 7.2443 118.817 6.46648 120.633 6.46648C123.432 6.46648 125.249 8.29891 125.249 11.0599V20.2212H121.844V11.6126C121.844 10.2316 121.036 9.12829 119.422 9.12829C117.606 9.12829 116.496 10.4081 116.496 12.1146V20.2212H113.091V0.945312H113.092Z" fill="black"/>
<path d="M127.063 13.495C127.063 9.4789 129.535 6.46777 134.026 6.46777C138.517 6.46777 140.987 9.47986 140.987 13.495C140.987 17.5101 138.516 20.4973 134.026 20.4973C129.536 20.4973 127.063 17.4853 127.063 13.495ZM130.519 13.495C130.519 15.9793 131.679 17.8871 134.026 17.8871C136.371 17.8871 137.531 15.9793 137.531 13.495C137.531 11.0107 136.371 9.07804 134.026 9.07804C131.68 9.07804 130.519 10.9859 130.519 13.495Z" fill="black"/>
<path d="M142.767 6.74359H145.971L146.046 8.65143H146.097C146.929 7.29619 148.392 6.46777 150.233 6.46777C153.084 6.46777 154.924 8.32503 154.924 11.1109V20.2215H151.52V11.6129C151.52 10.2319 150.687 9.12864 149.098 9.12864C147.282 9.12864 146.171 10.4085 146.171 12.1149V20.2215H142.767V6.74359H142.767Z" fill="black"/>
<path d="M169.511 6.74316L163.987 21.1249C162.928 23.8859 161.667 25.0904 159.169 25.0904C158.362 25.0904 157.756 24.9654 157.302 24.8146V22.3552C157.631 22.4306 158.009 22.5059 158.488 22.5059C159.699 22.5059 160.406 22.0545 160.885 20.5485L155.588 6.74411H159.195L162.6 16.7079H162.651L166.056 6.74411H169.512L169.511 6.74316Z" fill="black"/>
<path d="M181.617 15.5026H173.546L171.856 20.2212H168.199L175.488 0.945312H179.802L187.091 20.2212H183.307L181.617 15.5026ZM180.583 12.6414L177.607 4.35917H177.556L174.58 12.6414H180.583Z" fill="#01CAA9"/>
<path d="M191.83 0.945312H188.249V20.2212H191.83V0.945312Z" fill="#01CAA9"/>
<rect x="911" y="2" width="129" height="35" rx="6" fill="url(#paint0_linear_26_158)"/>
<path d="M934.825 18.0696C934.742 17.8011 934.628 17.5608 934.482 17.3487C934.34 17.1333 934.167 16.9493 933.965 16.7969C933.766 16.6444 933.538 16.5301 933.279 16.4538C933.021 16.3743 932.739 16.3345 932.434 16.3345C931.887 16.3345 931.4 16.4721 930.972 16.7472C930.545 17.0223 930.208 17.4266 929.963 17.9602C929.721 18.4905 929.6 19.1368 929.6 19.8991C929.6 20.6681 929.721 21.3194 929.963 21.853C930.205 22.3866 930.541 22.7926 930.972 23.071C931.403 23.3461 931.904 23.4837 932.474 23.4837C932.991 23.4837 933.438 23.3842 933.816 23.1854C934.197 22.9865 934.491 22.7048 934.696 22.3402C934.902 21.9723 935.004 21.5414 935.004 21.0476L935.422 21.1122H932.658V19.6705H936.789V20.8935C936.789 21.7652 936.603 22.5192 936.232 23.1555C935.861 23.7919 935.351 24.2824 934.701 24.6271C934.051 24.9685 933.306 25.1392 932.464 25.1392C931.526 25.1392 930.702 24.9287 929.993 24.5078C929.287 24.0836 928.735 23.482 928.337 22.7031C927.943 21.9209 927.746 20.9929 927.746 19.919C927.746 19.0971 927.862 18.3629 928.094 17.7166C928.329 17.0703 928.657 16.5218 929.078 16.071C929.499 15.617 929.993 15.2723 930.56 15.0369C931.126 14.7983 931.743 14.679 932.409 14.679C932.973 14.679 933.498 14.7618 933.985 14.9276C934.472 15.09 934.905 15.322 935.283 15.6236C935.664 15.9252 935.977 16.2831 936.222 16.6974C936.468 17.1117 936.628 17.5691 936.705 18.0696H934.825ZM938.573 25V14.8182H945.195V16.3643H940.417V19.1286H944.852V20.6747H940.417V23.4538H945.235V25H938.573ZM946.629 16.3643V14.8182H954.753V16.3643H951.606V25H949.776V16.3643H946.629ZM965.325 17.6172C965.278 17.183 965.083 16.8449 964.738 16.603C964.397 16.361 963.953 16.2401 963.406 16.2401C963.021 16.2401 962.691 16.2981 962.416 16.4141C962.141 16.5301 961.931 16.6875 961.785 16.8864C961.639 17.0852 961.565 17.3123 961.561 17.5675C961.561 17.7796 961.609 17.9635 961.705 18.1193C961.805 18.2751 961.939 18.4077 962.108 18.517C962.277 18.6231 962.464 18.7126 962.67 18.7855C962.875 18.8584 963.083 18.9197 963.291 18.9695L964.246 19.2081C964.63 19.2976 965 19.4186 965.355 19.571C965.713 19.7235 966.032 19.9157 966.314 20.1477C966.599 20.3797 966.825 20.6598 966.99 20.9879C967.156 21.3161 967.239 21.7005 967.239 22.1413C967.239 22.7379 967.086 23.2633 966.781 23.7173C966.477 24.1681 966.036 24.5211 965.459 24.7763C964.886 25.0282 964.191 25.1541 963.376 25.1541C962.584 25.1541 961.896 25.0315 961.313 24.7862C960.733 24.541 960.279 24.183 959.95 23.7124C959.626 23.2417 959.45 22.6683 959.423 21.9922H961.238C961.265 22.3468 961.374 22.6418 961.566 22.8771C961.758 23.1125 962.009 23.2881 962.317 23.4041C962.628 23.5201 962.977 23.5781 963.361 23.5781C963.762 23.5781 964.113 23.5185 964.415 23.3991C964.72 23.2765 964.959 23.1075 965.131 22.892C965.303 22.6733 965.391 22.4181 965.394 22.1264C965.391 21.8613 965.313 21.6425 965.161 21.4702C965.008 21.2945 964.794 21.1487 964.519 21.0327C964.248 20.9134 963.929 20.8073 963.565 20.7145L962.406 20.4162C961.568 20.2008 960.905 19.8743 960.418 19.4368C959.934 18.996 959.692 18.411 959.692 17.6818C959.692 17.0819 959.854 16.5566 960.179 16.1058C960.507 15.6551 960.953 15.3054 961.517 15.0568C962.08 14.8049 962.718 14.679 963.431 14.679C964.153 14.679 964.786 14.8049 965.33 15.0568C965.877 15.3054 966.306 15.6518 966.617 16.0959C966.929 16.5367 967.09 17.0438 967.1 17.6172H965.325ZM968.436 16.3643V14.8182H976.559V16.3643H973.412V25H971.583V16.3643H968.436ZM978.202 25H976.234L979.818 14.8182H982.095L985.685 25H983.716L980.996 16.9062H980.917L978.202 25ZM978.267 21.0078H983.636V22.4893H978.267V21.0078ZM987.026 25V14.8182H990.844C991.626 14.8182 992.282 14.9541 992.813 15.2259C993.346 15.4976 993.749 15.8788 994.021 16.3693C994.296 16.8565 994.433 17.425 994.433 18.0746C994.433 18.7275 994.294 19.2943 994.016 19.7749C993.741 20.2521 993.335 20.6217 992.798 20.8835C992.261 21.142 991.601 21.2713 990.819 21.2713H988.1V19.7401H990.57C991.028 19.7401 991.402 19.6771 991.694 19.5511C991.986 19.4219 992.201 19.2346 992.34 18.9893C992.483 18.7408 992.554 18.4358 992.554 18.0746C992.554 17.7133 992.483 17.4051 992.34 17.1499C992.198 16.8913 991.981 16.6958 991.689 16.5632C991.397 16.4273 991.021 16.3594 990.561 16.3594H988.87V25H987.026ZM992.286 20.3864L994.806 25H992.748L990.272 20.3864H992.286ZM995.684 16.3643V14.8182H1003.81V16.3643H1000.66V25H998.831V16.3643H995.684ZM1005.37 25V14.8182H1012V16.3643H1007.22V19.1286H1011.65V20.6747H1007.22V23.4538H1012.04V25H1005.37ZM1017.33 25H1013.88V14.8182H1017.4C1018.41 14.8182 1019.28 15.022 1020 15.4297C1020.73 15.834 1021.29 16.4157 1021.68 17.1747C1022.07 17.9337 1022.27 18.8419 1022.27 19.8991C1022.27 20.9598 1022.07 21.8712 1021.68 22.6335C1021.29 23.3958 1020.72 23.9808 1019.98 24.3885C1019.25 24.7962 1018.36 25 1017.33 25ZM1015.72 23.4041H1017.24C1017.95 23.4041 1018.54 23.2749 1019.01 23.0163C1019.49 22.7545 1019.84 22.3651 1020.08 21.848C1020.32 21.3277 1020.44 20.678 1020.44 19.8991C1020.44 19.1203 1020.32 18.474 1020.08 17.9602C1019.84 17.4432 1019.49 17.0571 1019.02 16.8018C1018.56 16.5433 1017.98 16.4141 1017.29 16.4141H1015.72V23.4041Z" fill="white"/>
<mask id="mask0_26_158" style="mask-type:alpha" maskUnits="userSpaceOnUse" x="875" y="12" width="16" height="16">
<rect x="875" y="12" width="16" height="16" fill="#D9D9D9"/>
</mask>
<g mask="url(#mask0_26_158)">
<path d="M887.6 25.5333L883.867 21.8C883.533 22.0667 883.15 22.2778 882.717 22.4333C882.283 22.5889 881.822 22.6667 881.333 22.6667C880.122 22.6667 879.097 22.2472 878.258 21.4083C877.419 20.5694 877 19.5444 877 18.3333C877 17.1222 877.419 16.0972 878.258 15.2583C879.097 14.4194 880.122 14 881.333 14C882.544 14 883.569 14.4194 884.408 15.2583C885.247 16.0972 885.667 17.1222 885.667 18.3333C885.667 18.8222 885.589 19.2833 885.433 19.7167C885.278 20.15 885.067 20.5333 884.8 20.8667L888.55 24.6167C888.672 24.7389 888.733 24.8889 888.733 25.0667C888.733 25.2444 888.667 25.4 888.533 25.5333C888.411 25.6556 888.256 25.7167 888.067 25.7167C887.878 25.7167 887.722 25.6556 887.6 25.5333ZM881.333 21.3333C882.167 21.3333 882.875 21.0417 883.458 20.4583C884.042 19.875 884.333 19.1667 884.333 18.3333C884.333 17.5 884.042 16.7917 883.458 16.2083C882.875 15.625 882.167 15.3333 881.333 15.3333C880.5 15.3333 879.792 15.625 879.208 16.2083C878.625 16.7917 878.333 17.5 878.333 18.3333C878.333 19.1667 878.625 19.875 879.208 20.4583C879.792 21.0417 880.5 21.3333 881.333 21.3333Z" fill="#210542"/>
</g>
<defs>
<linearGradient id="paint0_linear_26_158" x1="911" y1="20" x2="1099.03" y2="20" gradientUnits="userSpaceOnUse">
<stop stop-color="#00EAC3"/>
<stop offset="1" stop-color="#3374E2"/>
</linearGradient>
</defs>
</svg>
