<svg width="41" height="41" viewBox="0 0 41 41" fill="none" xmlns="http://www.w3.org/2000/svg">
<circle cx="20.5" cy="20.5" r="20" stroke="white"/>
<path d="M11.4697 20.4697C11.1768 20.7626 11.1768 21.2374 11.4697 21.5303L16.2426 26.3033C16.5355 26.5962 17.0104 26.5962 17.3033 26.3033C17.5962 26.0104 17.5962 25.5355 17.3033 25.2426L13.0607 21L17.3033 16.7574C17.5962 16.4645 17.5962 15.9896 17.3033 15.6967C17.0104 15.4038 16.5355 15.4038 16.2426 15.6967L11.4697 20.4697ZM28 21.75C28.4142 21.75 28.75 21.4142 28.75 21C28.75 20.5858 28.4142 20.25 28 20.25L28 21.75ZM12 21.75L28 21.75L28 20.25L12 20.25L12 21.75Z" fill="white"/>
</svg>
