<svg width="278" height="58" viewBox="0 0 278 58" fill="none" xmlns="http://www.w3.org/2000/svg">
<path d="M73.0518 50.0671H70.7094V55.1374H67.6998V42.0713H73.8549C76.4193 42.0713 78.2666 43.4499 78.2666 45.8815C78.2666 47.5997 77.3096 48.8071 75.8729 49.3868L78.6425 55.1374H75.343L73.0518 50.0671ZM70.7094 47.7873H73.5137C74.4541 47.7873 75.2404 47.2422 75.2404 46.0858C75.2404 44.9293 74.4541 44.3842 73.5137 44.3842H70.7094V47.7873Z" fill="black"/>
<path d="M80.8656 55.1374V42.0713H90.047V44.3856H83.8573V47.3967H89.226V49.6932H83.8573V52.823H90.1662V55.1374H80.8656Z" fill="black"/>
<path d="M96.5266 55.1379V44.4206H92.3549V42.0732H103.707V44.4206H99.5348V55.1379H96.5252H96.5266Z" fill="black"/>
<path d="M111.744 52.2794H106.632L105.657 55.1374H102.63L107.418 42.0713H111.042L115.846 55.1374H112.717L111.742 52.2794H111.744ZM110.974 50.0161L109.213 44.7926H109.178L107.4 50.0161H110.973H110.974Z" fill="black"/>
<path d="M117.541 55.1374V42.0713H120.551V55.1374H117.541Z" fill="black"/>
<path d="M123.354 42.0727H126.363V52.79H132.483V55.1374H123.354V42.0713V42.0727Z" fill="black"/>
<path d="M141.376 40.3262H143.683V57.4232H141.376V40.3262Z" fill="black"/>
<path d="M152.951 48.6386C152.951 44.8104 155.242 41.8848 159.362 41.8848C161.756 41.8848 163.517 42.906 164.628 44.6917L162.456 46.1035C161.772 44.8449 160.815 44.1811 159.465 44.1811C157.088 44.1811 155.993 46.2056 155.993 48.6041C155.993 51.0026 157.071 53.0271 159.516 53.0271C160.867 53.0271 161.842 52.3633 162.525 51.1723L164.68 52.5164C163.55 54.2691 161.858 55.3235 159.38 55.3235C155.259 55.3235 152.952 52.5 152.952 48.6372L152.951 48.6386Z" fill="black"/>
<path d="M172.988 42.0732C175.639 42.0732 177.809 43.6216 177.809 46.3941C177.809 49.1666 175.688 50.8005 172.938 50.8005H170.03V55.1393H167.02V42.0732H172.987H172.988ZM172.699 48.4862C173.827 48.4862 174.767 47.8569 174.767 46.4451C174.767 45.0333 173.827 44.3862 172.699 44.3862H170.031V48.4862H172.699Z" fill="black"/>
<path d="M192.069 47.9072V55.1372H189.437L189.369 53.793H189.334C188.667 54.6266 187.607 55.3249 185.779 55.3249C181.88 55.3249 179.845 52.3647 179.845 48.7062C179.845 45.0478 182.153 41.8848 186.479 41.8848C188.94 41.8848 190.718 42.8715 191.882 44.522L189.745 46.0014C188.959 44.8104 187.967 44.1811 186.565 44.1811C184.119 44.1811 182.89 46.1381 182.89 48.6552C182.89 51.1723 184.018 53.0437 186.378 53.0437C188.001 53.0437 189.198 52.0915 189.198 50.3899V50.1691H186.446V47.9058H192.07L192.069 47.9072Z" fill="black"/>
<path d="M8.58843 0.0345007C6.86589 0.235984 5.11146 1.0502 3.3584 2.46059L3.33067 2.48267L3.2946 2.47715C3.06715 2.43989 2.88131 2.43989 2.64554 2.43989C1.11578 2.55167 -0.072804 3.9041 0.00347591 5.45525C0.115815 6.98432 1.47776 8.16839 3.03249 8.09111C4.31121 8.01934 5.40964 7.03538 5.64403 5.75472L5.64958 5.7285L5.66899 5.71056C6.78684 4.69624 7.93104 4.19804 9.15291 4.19804C9.29437 4.19804 9.43861 4.20495 9.58285 4.21874C11.2208 4.40781 12.9544 5.45525 14.8878 7.41903C16.7878 9.34968 18.7267 11.9524 20.5394 14.4765L23.1967 18.2205C24.3173 19.7979 25.4754 21.4291 26.6487 22.9568C27.6861 24.2554 29.0745 25.8963 30.6029 27.0471C32.2269 28.2699 33.8135 28.746 35.4473 28.503L35.9716 28.4106L35.672 28.0532C32.5848 24.8254 30.0911 21.1572 28.2701 18.4786L25.1606 13.9838C22.9457 10.7987 20.8529 7.79026 18.6629 5.39591C15.3996 1.74849 12.4995 0.0345007 9.53569 0C9.08078 0 8.76318 0.0124203 8.58843 0.0345007Z" fill="#A933FB"/>
<path d="M5.76191 15.8811L5.75914 15.9087C5.64402 17.326 4.52895 18.4355 3.11014 18.5459C3.063 18.5487 3.01584 18.5487 2.96868 18.5487C1.47083 18.5487 0.189321 17.3908 0.0797545 15.9101C0.00347456 14.3589 1.19205 13.0065 2.72458 12.8947H2.95204L7.57044 8.18607C8.24171 7.49881 9.17232 7.1124 10.1279 7.14552C11.0571 7.17037 11.9031 7.56506 12.5106 8.25644L12.6673 8.47449L5.76191 15.8797V15.8811Z" fill="#1EACFC"/>
<path d="M2.97842 23.1238L2.91877 23.121C1.35434 23.121 0.0811615 24.3878 0.0811615 25.9459C0.0811615 27.5039 1.35434 28.7709 2.92016 28.7709C3.05053 28.7709 3.17535 28.7529 3.30572 28.7335L3.3612 28.7252C4.66767 28.521 5.64404 27.464 5.73836 26.146V26.1184L17.4536 13.5063L14.9045 10.4551L2.97842 23.1238Z" fill="#FFB600"/>
<path d="M45.7478 30.5193C47.9128 30.2778 50.0486 29.0951 52.2953 26.8967L52.319 26.8746H52.6629C54.1899 26.76 55.3439 25.409 55.2301 23.862C55.1178 22.3316 53.7545 21.1447 52.1997 21.2247C50.7656 21.3379 49.6672 22.4461 49.5895 23.8607V23.8882L49.5702 23.9089C47.9822 25.7099 46.3914 26.5034 44.7145 26.3364C43.078 26.1473 41.343 25.0999 39.411 23.1362C37.5095 21.2041 35.5707 18.6013 33.7594 16.0773L31.0938 12.3222C29.9758 10.749 28.8206 9.12054 27.65 7.59699C26.6113 6.29838 25.2229 4.65753 23.6946 3.5066C22.0705 2.28388 20.4853 1.80778 18.8502 2.05066L18.3494 2.11L18.7003 2.45914C21.789 5.68703 24.2841 9.35791 26.1051 12.0365L28.6735 15.7543C31.2754 19.5949 33.4612 22.6628 35.6733 25.1579C38.9353 28.8039 41.8353 30.5179 44.8006 30.5524C45.2693 30.5524 45.519 30.5399 45.7478 30.5179V30.5193Z" fill="#0074E8"/>
<path d="M52.4355 16.9981H52.5853C53.3495 16.9623 54.0457 16.6352 54.5422 16.0777C55.0401 15.5188 55.2842 14.7902 55.2301 14.0242C55.1206 12.5406 53.839 11.3828 52.3412 11.3828C52.2941 11.3828 52.2483 11.3828 52.2011 11.3856C50.7435 11.4973 49.6284 12.6387 49.5507 14.0987V14.129L41.7119 22.499L41.8645 22.6811C42.4761 23.3794 43.336 23.7754 44.2846 23.7948C44.3083 23.7948 44.3318 23.7948 44.354 23.7948C45.2832 23.7948 46.1736 23.4181 46.8033 22.7542L52.4327 16.9967L52.4355 16.9981Z" fill="#FB24A9"/>
<path d="M36.8897 17.4302L39.4721 20.487L52.6657 6.4686L52.6935 6.46583C54.2288 6.31264 55.3425 4.9892 55.2301 3.45185C55.1178 1.92278 53.7572 0.731815 52.1998 0.814616C50.6395 0.927778 49.4745 2.23604 49.5507 3.79133V3.82445L36.8883 17.4302H36.8897Z" fill="#FF8500"/>
<path d="M66.7151 25.5015L69.8149 22.1632C71.8578 24.305 74.7023 25.5388 77.8755 25.5388C81.7783 25.5388 83.5286 24.0152 83.5286 21.6554C83.5286 19.0789 81.0849 18.3889 76.8909 17.409C72.2225 16.2843 67.6998 14.6876 67.6998 9.27927C67.6998 4.45332 71.4209 0.96875 78.0586 0.96875C82.3997 0.96875 85.7185 2.38466 88.2344 4.85214L85.3523 8.2277C83.419 6.26805 80.9753 5.0702 77.9851 5.0702C74.5927 5.0702 72.9146 6.66688 72.9146 8.77142C72.9146 11.3121 75.2488 11.8558 79.3706 12.8729C84.2942 14.1067 88.7073 15.6316 88.7073 21.1475C88.7073 26.1556 84.8419 29.6402 77.8381 29.6402C73.0242 29.6402 69.4127 28.1884 66.7137 25.5029L66.7151 25.5015Z" fill="black"/>
<path d="M107.829 9.75098L99.8414 30.5466C98.3103 34.539 96.4865 36.2806 92.8749 36.2806C91.7071 36.2806 90.8321 36.0999 90.176 35.8819V32.3255C90.6504 32.4345 91.1981 32.5435 91.8902 32.5435C93.6405 32.5435 94.6627 31.8907 95.3547 29.7131L87.6962 9.75235H92.9124L97.8359 24.1598H97.9094L102.833 9.75235H107.83L107.829 9.75098Z" fill="black"/>
<path d="M114.465 12.3632C115.705 10.4394 117.602 9.35059 120.192 9.35059C122.781 9.35059 124.933 10.5126 125.954 12.4722C127.339 10.3677 129.492 9.35059 132.117 9.35059C136.13 9.35059 138.793 11.8553 138.793 15.6297V29.2395H133.87V16.4274C133.87 14.6127 132.812 13.1981 130.587 13.1981C128.178 13.1981 126.683 14.8679 126.683 17.1173V29.2395H121.76V16.4274C121.76 14.6127 120.666 13.1981 118.513 13.1981C116.106 13.1981 114.575 14.8679 114.575 17.1173V29.2395H109.651V9.75079H114.283L114.393 12.3632H114.466H114.465Z" fill="black"/>
<path d="M146.362 26.7354H146.29V35.8809H141.367V9.75136H145.999L146.108 12.6549H146.181C147.676 10.5863 149.938 9.35254 152.527 9.35254C157.816 9.35254 160.953 13.7079 160.953 19.4061C160.953 25.1042 157.67 29.6403 152.382 29.6403C149.828 29.6403 147.823 28.5888 146.363 26.7368L146.362 26.7354ZM155.956 19.4764C155.956 16.174 154.461 13.1987 151.032 13.1987C147.787 13.1987 146.145 16.0292 146.145 19.5855C146.145 23.1417 147.859 25.7914 150.996 25.7914C154.315 25.7914 155.957 22.9969 155.957 19.4764H155.956Z" fill="black"/>
<path d="M163.527 1.36719H168.45V12.3991H168.522C169.762 10.4754 171.805 9.35064 174.431 9.35064C178.479 9.35064 181.106 12.0003 181.106 15.9927V29.2396H176.183V16.7917C176.183 14.7949 175.015 13.1996 172.681 13.1996C170.055 13.1996 168.449 15.0502 168.449 17.5176V29.2396H163.526V1.36719H163.527Z" fill="black"/>
<path d="M183.73 19.5137C183.73 13.7066 187.304 9.35254 193.798 9.35254C200.291 9.35254 203.864 13.7079 203.864 19.5137C203.864 25.3195 200.29 29.6389 193.798 29.6389C187.305 29.6389 183.73 25.2835 183.73 19.5137ZM188.727 19.5137C188.727 23.1059 190.405 25.8645 193.798 25.8645C197.189 25.8645 198.866 23.1059 198.866 19.5137C198.866 15.9215 197.188 13.1269 193.798 13.1269C190.406 13.1269 188.727 15.8856 188.727 19.5137Z" fill="black"/>
<path d="M206.438 9.75136H211.07L211.179 12.51H211.252C212.455 10.5504 214.57 9.35254 217.233 9.35254C221.355 9.35254 224.016 12.0381 224.016 16.0664V29.2401H219.093V16.7923C219.093 14.7953 217.889 13.2001 215.592 13.2001C212.966 13.2001 211.36 15.0507 211.36 17.5181V29.2401H206.436V9.75136H206.438Z" fill="black"/>
<path d="M245.108 9.75098L237.12 30.5466C235.589 34.539 233.765 36.2806 230.154 36.2806C228.986 36.2806 228.11 36.0999 227.455 35.8819V32.3255C227.93 32.4345 228.477 32.5435 229.169 32.5435C230.919 32.5435 231.942 31.8907 232.634 29.7131L224.975 9.75235H230.192L235.115 24.1598H235.188L240.112 9.75235H245.109L245.108 9.75098Z" fill="black"/>
<path d="M262.613 22.4167H250.942L248.498 29.2396H243.211L253.751 1.36719H259.988L270.528 29.2396H265.057L262.613 22.4167ZM261.118 18.2795L256.814 6.30354H256.741L252.438 18.2795H261.118Z" fill="#01CAA9"/>
<path d="M277.381 1.36719H272.202V29.2396H277.381V1.36719Z" fill="#01CAA9"/>
</svg>
